<svg width="48" height="24" viewBox="0 0 48 24" fill="none" xmlns="http://www.w3.org/2000/svg">
<rect width="48" height="24" rx="3" fill="#9B51E0"/>
<path d="M16.8462 16H18.2109V11.9629C18.2109 10.9155 18.9028 10.2109 20.02 10.2109C21.0483 10.2109 21.5625 10.7695 21.5625 11.874V16H22.9272V11.5376C22.9272 9.89355 22.0386 8.96045 20.4834 8.96045C19.4424 8.96045 18.6426 9.42383 18.3062 10.1982H18.1982V6.38965H16.8462V16ZM24.8823 16H26.2407V9.0874H24.8823V16ZM25.5615 7.875C26.0693 7.875 26.4438 7.51318 26.4438 7.04346C26.4438 6.56738 26.0693 6.20557 25.5615 6.20557C25.0537 6.20557 24.6792 6.56738 24.6792 7.04346C24.6792 7.51318 25.0537 7.875 25.5615 7.875ZM28.729 7.41162V9.11914H27.5928V10.2681H28.729V14.1719C28.729 15.5049 29.332 16.0381 30.8491 16.0381C31.1157 16.0381 31.3633 16.0063 31.5791 15.9683V14.832C31.3887 14.8511 31.2808 14.8638 31.0713 14.8638C30.3921 14.8638 30.0938 14.5464 30.0938 13.8228V10.2681H31.6426V9.11914H30.0938V7.41162H28.729Z" fill="white"/>
</svg>
