<svg width="77" height="51" viewBox="0 0 77 51" fill="none" xmlns="http://www.w3.org/2000/svg">
<path fill-rule="evenodd" clip-rule="evenodd" d="M1.19992 -4.17161e-05C0.881694 -9.89789e-06 0.576507 0.126476 0.351485 0.351498C0.126462 0.576521 3.18182e-05 0.881652 0 1.19988L0 39.5974C3.18182e-05 39.9157 0.126462 40.2208 0.351485 40.4458C0.576507 40.6708 0.881694 40.7973 1.19992 40.7974H12.1914C12.1367 41.183 12.0695 41.5686 12.0695 41.9692C12.0696 46.5939 15.8443 50.3686 20.469 50.3686C25.0937 50.3686 28.8685 46.5939 28.8685 41.9692C28.8685 41.5686 28.8013 41.183 28.7466 40.7974H35.2618H49.1969C49.2773 40.7958 49.3574 40.7862 49.4359 40.7687H51.7889C51.7316 41.1632 51.667 41.5587 51.667 41.9686C51.667 46.5933 55.4418 50.368 60.0665 50.368C64.6912 50.368 68.466 46.5933 68.466 41.9686C68.466 41.5587 68.4014 41.1632 68.3441 40.7687H75.5952C75.9134 40.7686 76.2186 40.6421 76.4436 40.4171C76.6687 40.1921 76.7951 39.887 76.7951 39.5687V32.4582C76.7977 32.4303 76.7993 32.4022 76.7999 32.3742V27.5607C76.8004 27.5201 76.7988 27.4793 76.7951 27.4388V20.3659C76.796 20.0748 76.691 19.7934 76.4998 19.574C76.4562 19.5068 76.406 19.444 76.3498 19.3868L63.9147 5.1799C63.8017 5.05136 63.6625 4.94849 63.5065 4.87816C63.3505 4.80784 63.1812 4.77164 63.0101 4.77212H50.3968V1.20047C50.3968 0.882238 50.2703 0.577107 50.0453 0.352084C49.8203 0.127062 49.5151 0.000576002 49.1969 0.000544184L1.19992 -4.17161e-05ZM2.39985 2.39981H47.9969V28.77H2.39985V2.39981ZM50.3968 7.17138H62.4663L72.9704 19.1659H50.3968V7.17138ZM50.4671 21.5658H74.3953V26.3608H70.8611C70.5429 26.3608 70.2377 26.4873 70.0127 26.7123C69.7877 26.9373 69.6612 27.2425 69.6612 27.5607V32.3745C69.6612 32.6927 69.7877 32.9978 70.0127 33.2228C70.2377 33.4479 70.5429 33.5744 70.8611 33.5744H74.3953V38.3694H67.6223C66.2672 35.5426 63.3998 33.5697 60.0665 33.5697C56.7332 33.5697 53.8658 35.5426 52.5107 38.3694H50.4671V37.6991V21.5658ZM53.9263 25.1702C53.7687 25.1782 53.6142 25.2171 53.4716 25.2848C53.329 25.3525 53.2012 25.4477 53.0954 25.5648C52.9896 25.6819 52.9079 25.8187 52.855 25.9673C52.802 26.116 52.7789 26.2735 52.7869 26.4311C52.7949 26.5887 52.8339 26.7432 52.9016 26.8857C52.9693 27.0283 53.0645 27.1561 53.1816 27.2619C53.2987 27.3677 53.4355 27.4492 53.5842 27.5021C53.7329 27.555 53.8905 27.5781 54.0481 27.5701H56.4855C56.6445 27.5723 56.8023 27.543 56.9499 27.4837C57.0974 27.4244 57.2317 27.3363 57.345 27.2247C57.4582 27.113 57.5481 26.98 57.6095 26.8333C57.6709 26.6866 57.7025 26.5292 57.7025 26.3702C57.7025 26.2111 57.6709 26.0537 57.6095 25.907C57.5481 25.7603 57.4582 25.6273 57.345 25.5156C57.2317 25.404 57.0974 25.3159 56.9499 25.2567C56.8023 25.1974 56.6445 25.168 56.4855 25.1702H54.0481C54.0075 25.1682 53.9669 25.1682 53.9263 25.1702ZM72.061 28.7606H74.3953V31.1745H72.061V28.7606ZM2.39985 31.1699H47.9969V38.3975H35.2618H28.0435C26.6947 35.5542 23.8144 33.5697 20.469 33.5697C17.1236 33.5697 14.2433 35.5542 12.8945 38.3975H2.39985V35.9695H6.05118C6.21018 35.9718 6.36805 35.9424 6.5156 35.8831C6.66315 35.8238 6.79745 35.7358 6.91068 35.6242C7.02392 35.5125 7.11384 35.3795 7.17521 35.2328C7.23659 35.0861 7.26819 34.9286 7.26819 34.7696C7.26819 34.6106 7.23659 34.4532 7.17521 34.3065C7.11384 34.1598 7.02392 34.0267 6.91068 33.9151C6.79745 33.8034 6.66315 33.7154 6.5156 33.6561C6.36805 33.5968 6.21018 33.5674 6.05118 33.5697H2.39985V31.1699ZM20.469 35.9695C23.7968 35.9695 26.4687 38.6413 26.4686 41.9692C26.4686 45.2968 23.7967 47.9688 20.469 47.9688C17.1413 47.9688 14.4694 45.2968 14.4694 41.9692C14.4693 38.6413 17.1412 35.9695 20.469 35.9695ZM60.0665 35.9695C63.3942 35.9695 66.0661 38.6415 66.0661 41.9692C66.0661 45.2968 63.3942 47.9688 60.0665 47.9688C56.7388 47.9688 54.0669 45.2968 54.0669 41.9692C54.0669 38.6415 56.7388 35.9695 60.0665 35.9695ZM20.469 38.3694C18.4951 38.3694 16.8692 39.9953 16.8692 41.9692C16.8692 43.943 18.4951 45.5689 20.469 45.5689C22.4429 45.5689 24.0688 43.943 24.0688 41.9692C24.0688 39.9953 22.4429 38.3694 20.469 38.3694ZM60.0665 38.3694C58.0926 38.3694 56.4667 39.9953 56.4667 41.9692C56.4667 43.943 58.0926 45.5689 60.0665 45.5689C62.0404 45.5689 63.6663 43.943 63.6663 41.9692C63.6663 39.9953 62.0404 38.3694 60.0665 38.3694ZM20.469 40.7692C21.1459 40.7692 21.6689 41.2922 21.6689 41.9692C21.6689 42.6462 21.1459 43.1691 20.469 43.1691C19.7921 43.1691 19.2691 42.6462 19.2691 41.9692C19.2691 41.2922 19.7921 40.7692 20.469 40.7692ZM60.0665 40.7692C60.7434 40.7692 61.2664 41.2922 61.2664 41.9692C61.2664 42.6462 60.7434 43.1691 60.0665 43.1691C59.3896 43.1691 58.8666 42.6462 58.8666 41.9692C58.8666 41.2922 59.3896 40.7692 60.0665 40.7692Z" fill="#2D9CDB"/>
</svg>
