<svg width="64" height="50" viewBox="0 0 64 50" fill="none" xmlns="http://www.w3.org/2000/svg">
<path fill-rule="evenodd" clip-rule="evenodd" d="M0 4.8C0 2.14903 2.14903 0 4.8 0H56.4C59.0509 0 61.2 2.14903 61.2 4.8V15.6H61.2C62.5255 15.6 63.6 16.6745 63.6 18V31.2C63.6 32.5255 62.5255 33.6 61.2 33.6H61.2V44.4C61.2 47.0509 59.0509 49.2 56.4 49.2H4.8C2.14903 49.2 0 47.0509 0 44.4V4.8ZM58.8 4.8V15.6H45.1597C44.2113 15.6 43.3518 16.1586 42.9666 17.0253L40.0332 23.6253C39.7574 24.2458 39.7574 24.9542 40.0332 25.5747L42.9666 32.1747C43.3518 33.0414 44.2113 33.6 45.1597 33.6H58.8V44.4C58.8 45.7255 57.7255 46.8 56.4 46.8H4.8C3.47452 46.8 2.4 45.7255 2.4 44.4V4.8C2.4 3.47451 3.47451 2.4 4.8 2.4H56.4C57.7255 2.4 58.8 3.47452 58.8 4.8ZM61.2 31.2L61.2 31.2H58.8L45.1597 31.2L42.2264 24.6L45.1597 18H58.8H61.2H61.2V31.2ZM52.8 24.6C52.8 25.5941 51.9941 26.4 51 26.4C50.0059 26.4 49.2 25.5941 49.2 24.6C49.2 23.6059 50.0059 22.8 51 22.8C51.9941 22.8 52.8 23.6059 52.8 24.6ZM55.2 24.6C55.2 26.9196 53.3196 28.8 51 28.8C48.6804 28.8 46.8 26.9196 46.8 24.6C46.8 22.2804 48.6804 20.4 51 20.4C53.3196 20.4 55.2 22.2804 55.2 24.6Z" fill="#2D9CDB"/>
</svg>
