<svg width="74" height="64" viewBox="0 0 74 64" fill="none" xmlns="http://www.w3.org/2000/svg">
<path fill-rule="evenodd" clip-rule="evenodd" d="M16.5941 28.5359L18.9123 29.1571L19.5335 26.8389L20.5938 22.8814L54.5472 3.27846L70.1472 30.2985L36.1939 49.9014L32.2364 48.841L29.9182 48.2198L29.297 50.5381L28.2366 54.4955L18.8785 59.8985L3.27846 32.8785L12.6366 27.4755L16.5941 28.5359ZM53.3472 1.2L18.5329 21.3L17.8364 23.8995L17.2152 26.2177L14.897 25.5965L12.2975 24.9L2.07846 30.8C0.930559 31.4627 0.537258 32.9306 1.2 34.0785L16.8 61.0985C17.4627 62.2464 18.9306 62.6397 20.0785 61.9769L30.2975 56.0769L30.9941 53.4775L31.6152 51.1592L33.9335 51.7804L36.5329 52.4769L71.3472 32.3769C72.4951 31.7142 72.8884 30.2464 72.2256 29.0985L56.6256 2.07846C55.9629 0.930559 54.4951 0.537258 53.3472 1.2ZM28.6152 45.9631C29.1892 45.6317 29.3858 44.8978 29.0545 44.3239C28.7231 43.7499 27.9892 43.5533 27.4152 43.8846C26.8413 44.216 26.6446 44.9499 26.976 45.5239C27.3074 46.0978 28.0413 46.2945 28.6152 45.9631ZM26.6545 40.1669C26.9858 40.7409 26.7892 41.4748 26.2152 41.8062C25.6413 42.1375 24.9074 41.9409 24.576 41.3669C24.2446 40.793 24.4413 40.0591 25.0152 39.7277C25.5892 39.3963 26.3231 39.593 26.6545 40.1669ZM23.8152 37.6492C24.3892 37.3179 24.5858 36.584 24.2545 36.01C23.9231 35.4361 23.1892 35.2394 22.6152 35.5708C22.0413 35.9021 21.8446 36.6361 22.176 37.21C22.5074 37.784 23.2413 37.9806 23.8152 37.6492ZM21.8545 31.8531C22.1858 32.427 21.9892 33.1609 21.4152 33.4923C20.8413 33.8237 20.1074 33.627 19.776 33.0531C19.4446 32.4791 19.6413 31.7452 20.2152 31.4139C20.7892 31.0825 21.5231 31.2791 21.8545 31.8531ZM48.7411 14.885C48.9126 14.2449 48.5327 13.5868 47.8926 13.4153C47.2524 13.2438 46.5944 13.6237 46.4229 14.2638L39.6148 39.6719C39.4432 40.3121 39.8231 40.9701 40.4633 41.1416C41.1035 41.3131 41.7615 40.9332 41.933 40.2931L48.7411 14.885ZM39.5239 26.0456C39.8669 24.7653 39.1071 23.4493 37.8268 23.1062C36.5465 22.7631 35.2305 23.5229 34.8874 24.8032C34.5444 26.0836 35.3042 27.3996 36.5845 27.7426C37.8648 28.0857 39.1808 27.3259 39.5239 26.0456ZM41.8421 26.6667C42.5282 24.1061 41.0086 21.4741 38.448 20.788C35.8873 20.1019 33.2553 21.6214 32.5692 24.1821C31.8831 26.7427 33.4027 29.3747 35.9633 30.0609C38.524 30.747 41.156 29.2274 41.8421 26.6667ZM51.7362 26.8333C53.0165 27.1763 53.7763 28.4923 53.4333 29.7726C53.0902 31.053 51.7742 31.8128 50.4939 31.4697C49.2136 31.1266 48.4538 29.8106 48.7968 28.5303C49.1399 27.25 50.4559 26.4902 51.7362 26.8333ZM52.3574 24.515C54.918 25.2012 56.4376 27.8332 55.7515 30.3938C55.0654 32.9544 52.4333 34.474 49.8727 33.7879C47.3121 33.1018 45.7925 30.4698 46.4786 27.9091C47.1647 25.3485 49.7967 23.8289 52.3574 24.515Z" fill="#2D9CDB"/>
</svg>
